<svg aria-hidden="true" style="position: absolute; width: 0; height: 0; overflow: hidden;" version="1.1" xmlns="http://www.w3.org/2000/svg" xmlns:xlink="http://www.w3.org/1999/xlink">
<defs>
<symbol id="icon-arrow_down" viewBox="0 0 48 32">
<path fill="#fff" style="fill: var(--color1, #fff)" d="M47.492 5.926c0.298 0.298 0.446 0.64 0.446 1.027s-0.149 0.729-0.446 1.027l-20.804 20.804c-0.298 0.298-0.64 0.446-1.027 0.446s-0.729-0.149-1.027-0.446l-20.804-20.804c-0.298-0.298-0.446-0.64-0.446-1.027s0.149-0.729 0.446-1.027l2.232-2.232c0.298-0.298 0.64-0.446 1.027-0.446s0.729 0.149 1.027 0.446l17.545 17.545 17.545-17.545c0.298-0.298 0.64-0.446 1.027-0.446s0.729 0.149 1.027 0.446l2.232 2.232z"></path>
</symbol>
<symbol id="icon-arrow_left" viewBox="0 0 18 32">
<path fill="#fff" style="fill: var(--color1, #fff)" d="M17.417 4.444c0-0.25-0.111-0.472-0.278-0.639l-1.389-1.389c-0.167-0.167-0.417-0.278-0.639-0.278s-0.472 0.111-0.639 0.278l-12.944 12.944c-0.167 0.167-0.278 0.417-0.278 0.639s0.111 0.472 0.278 0.639l12.944 12.944c0.167 0.167 0.417 0.278 0.639 0.278s0.472-0.111 0.639-0.278l1.389-1.389c0.167-0.167 0.278-0.417 0.278-0.639s-0.111-0.472-0.278-0.639l-10.917-10.917 10.917-10.917c0.167-0.167 0.278-0.417 0.278-0.639z"></path>
</symbol>
<symbol id="icon-arrow_right" viewBox="0 0 18 32">
<path fill="#fff" style="fill: var(--color1, #fff)" d="M16.528 16c0-0.222-0.111-0.472-0.278-0.639l-12.944-12.944c-0.167-0.167-0.417-0.278-0.639-0.278s-0.472 0.111-0.639 0.278l-1.389 1.389c-0.167 0.167-0.278 0.417-0.278 0.639s0.111 0.472 0.278 0.639l10.917 10.917-10.917 10.917c-0.167 0.167-0.278 0.417-0.278 0.639 0 0.25 0.111 0.472 0.278 0.639l1.389 1.389c0.167 0.167 0.417 0.278 0.639 0.278s0.472-0.111 0.639-0.278l12.944-12.944c0.167-0.167 0.278-0.417 0.278-0.639z"></path>
</symbol>
<symbol id="icon-facebook" viewBox="0 0 20 32">
<path d="M17.438 18h-4.688v14h-6.25v-14h-5.125v-5.75h5.125v-4.438c0-5 3-7.813 7.563-7.813 2.188 0 4.5 0.438 4.5 0.438v4.938h-2.563c-2.5 0-3.25 1.5-3.25 3.125v3.75h5.563l-0.875 5.75z"></path>
</symbol>
<symbol id="icon-Instagram" viewBox="0 0 32 32">
<path d="M17.067 7.267c4.2 0 7.667 3.467 7.667 7.667 0 4.267-3.467 7.667-7.667 7.667-4.267 0-7.667-3.4-7.667-7.667 0-4.2 3.4-7.667 7.667-7.667zM17.067 19.933c2.733 0 4.933-2.2 4.933-5 0-2.733-2.2-4.933-4.933-4.933-2.8 0-5 2.2-5 4.933 0 2.8 2.267 5 5 5zM26.8 7c0 1-0.8 1.8-1.8 1.8s-1.8-0.8-1.8-1.8 0.8-1.8 1.8-1.8c1 0 1.8 0.8 1.8 1.8zM31.867 8.8c0.133 2.467 0.133 9.867 0 12.333-0.133 2.4-0.667 4.467-2.4 6.267-1.733 1.733-3.867 2.266-6.267 2.4-2.467 0.133-9.867 0.133-12.333 0-2.4-0.134-4.467-0.667-6.267-2.4-1.733-1.8-2.267-3.867-2.4-6.267-0.133-2.467-0.133-9.867 0-12.333 0.133-2.4 0.667-4.533 2.4-6.267 1.8-1.733 3.867-2.267 6.267-2.4 2.467-0.133 9.867-0.133 12.333 0 2.4 0.133 4.533 0.667 6.267 2.4s2.267 3.867 2.4 6.267zM28.667 23.733c0.8-1.933 0.6-6.6 0.6-8.8 0-2.133 0.2-6.8-0.6-8.8-0.533-1.267-1.533-2.333-2.8-2.8-2-0.8-6.667-0.6-8.8-0.6-2.2 0-6.867-0.2-8.8 0.6-1.333 0.533-2.333 1.533-2.867 2.8-0.8 2-0.6 6.667-0.6 8.8 0 2.2-0.2 6.867 0.6 8.8 0.533 1.333 1.533 2.333 2.867 2.867 1.933 0.8 6.6 0.6 8.8 0.6 2.133 0 6.8 0.2 8.8-0.6 1.267-0.533 2.333-1.533 2.8-2.867z"></path>
</symbol>
<symbol id="icon-logo" viewBox="0 0 143 32">
<path d="M0 0h142.815v32h-142.815v-32z"></path>
</symbol>
<symbol id="icon-map_icon" viewBox="0 0 21 32">
<path   d="M14.694 10.286c0 2.698-2.2 4.898-4.898 4.898s-4.898-2.2-4.898-4.898c0-2.698 2.2-4.898 4.898-4.898s4.898 2.2 4.898 4.898zM19.592 10.286c0-5.415-4.381-9.796-9.796-9.796s-9.796 4.381-9.796 9.796c0 1.167 0.134 2.372 0.631 3.425l6.983 14.809c0.383 0.842 1.263 1.358 2.181 1.358s1.798-0.517 2.2-1.358l6.964-14.809c0.497-1.052 0.631-2.258 0.631-3.425z"></path>
</symbol>
<symbol id="icon-search_icon" viewBox="0 0 32 32">
<path fill="#fff" style="fill: var(--color1, #fff)" d="M13 24c1.445 0 2.875-0.285 4.209-0.837s2.547-1.363 3.569-2.384c1.021-1.021 1.832-2.234 2.384-3.569s0.837-2.765 0.837-4.21-0.285-2.875-0.837-4.21c-0.553-1.335-1.363-2.547-2.384-3.569s-2.234-1.832-3.569-2.384-2.765-0.837-4.21-0.837c-2.917 0-5.715 1.159-7.778 3.222s-3.222 4.861-3.222 7.778c0 2.917 1.159 5.715 3.222 7.778s4.861 3.222 7.778 3.222zM26 13c0 3.448-1.37 6.754-3.808 9.192s-5.745 3.808-9.192 3.808-6.754-1.37-9.192-3.808c-2.438-2.438-3.808-5.745-3.808-9.192s1.37-6.754 3.808-9.192c2.438-2.438 5.745-3.808 9.192-3.808s6.754 1.37 9.192 3.808c2.438 2.438 3.808 5.745 3.808 9.192z"></path>
<path fill="#fff" style="fill: var(--color1, #fff)" d="M20.688 23.484c0.060 0.080 0.124 0.156 0.196 0.23l7.7 7.7c0.375 0.375 0.884 0.586 1.414 0.586s1.039-0.21 1.415-0.585c0.375-0.375 0.586-0.884 0.586-1.414s-0.21-1.039-0.585-1.415l-7.7-7.7c-0.072-0.072-0.148-0.139-0.23-0.2-0.785 1.070-1.727 2.014-2.796 2.8v-0.002z"></path>
<path fill="#fff" style="fill: var(--color1, #fff)" d="M13 6c0.265 0 0.52 0.105 0.707 0.293s0.293 0.442 0.293 0.707v5h5c0.265 0 0.52 0.105 0.707 0.293s0.293 0.442 0.293 0.707c0 0.265-0.105 0.52-0.293 0.707s-0.442 0.293-0.707 0.293h-5v5c0 0.265-0.105 0.52-0.293 0.707s-0.442 0.293-0.707 0.293c-0.265 0-0.52-0.105-0.707-0.293s-0.293-0.442-0.293-0.707v-5h-5c-0.265 0-0.52-0.105-0.707-0.293s-0.293-0.442-0.293-0.707c0-0.265 0.105-0.52 0.293-0.707s0.442-0.293 0.707-0.293h5v-5c0-0.265 0.105-0.52 0.293-0.707s0.442-0.293 0.707-0.293z"></path>
</symbol>
<symbol id="icon-twitter" viewBox="0 0 37 32">
<path d="M32.786 8.571c0 0.357 0 0.643 0 1 0 9.929-7.5 21.286-21.286 21.286-4.286 0-8.214-1.214-11.5-3.357 0.571 0.072 1.143 0.143 1.786 0.143 3.5 0 6.714-1.214 9.286-3.214-3.286-0.072-6.071-2.214-7-5.214 0.5 0.071 0.929 0.143 1.429 0.143 0.643 0 1.357-0.143 1.929-0.286-3.429-0.714-6-3.714-6-7.357v-0.071c1 0.571 2.214 0.857 3.429 0.929-2.071-1.357-3.357-3.643-3.357-6.214 0-1.429 0.357-2.714 1-3.786 3.714 4.5 9.286 7.5 15.5 7.857-0.143-0.571-0.214-1.143-0.214-1.714 0-4.143 3.357-7.5 7.5-7.5 2.143 0 4.072 0.857 5.5 2.357 1.643-0.357 3.286-1 4.714-1.857-0.571 1.786-1.714 3.214-3.285 4.143 1.5-0.143 3-0.571 4.286-1.143-1 1.5-2.286 2.786-3.714 3.857z"></path>
</symbol>
</defs>
</svg>
